<mxfile host="65bd71144e">
    <diagram id="Si4bho7zsRxqyB0JZBcW" name="Page-1">
        <mxGraphModel dx="1853" dy="1813" grid="1" gridSize="10" guides="1" tooltips="1" connect="1" arrows="1" fold="1" page="1" pageScale="1" pageWidth="827" pageHeight="1169" math="0" shadow="0">
            <root>
                <mxCell id="0"/>
                <mxCell id="1" parent="0"/>
                <mxCell id="2" value="&lt;font style=&quot;font-size: 10px;&quot; color=&quot;#006da3&quot;&gt;&lt;i&gt;backend&lt;/i&gt;&lt;/font&gt;" style="edgeStyle=none;html=1;exitX=1;exitY=1;exitDx=0;exitDy=0;entryX=0;entryY=0.5;entryDx=0;entryDy=0;strokeColor=#006DA3;fontSize=12;fontColor=#FF0000;startArrow=none;startFill=0;endArrow=openThin;endFill=0;" edge="1" parent="1" source="4" target="7">
                    <mxGeometry x="0.0639" y="-19" relative="1" as="geometry">
                        <Array as="points">
                            <mxPoint x="-70" y="-190"/>
                        </Array>
                        <mxPoint as="offset"/>
                    </mxGeometry>
                </mxCell>
                <mxCell id="3" value="&lt;font style=&quot;font-size: 10px;&quot; color=&quot;#ffa929&quot;&gt;&lt;i&gt;frontend&lt;/i&gt;&lt;/font&gt;" style="edgeStyle=none;html=1;exitX=1;exitY=0;exitDx=0;exitDy=0;entryX=0;entryY=0.5;entryDx=0;entryDy=0;strokeColor=#FFA929;fontSize=12;fontColor=#FF0000;startArrow=none;startFill=0;endArrow=openThin;endFill=0;" edge="1" parent="1" source="4" target="6">
                    <mxGeometry x="0.0639" y="19" relative="1" as="geometry">
                        <Array as="points">
                            <mxPoint x="-70" y="-250"/>
                        </Array>
                        <mxPoint as="offset"/>
                    </mxGeometry>
                </mxCell>
                <mxCell id="4" value="C2" style="ellipse;whiteSpace=wrap;html=1;labelBackgroundColor=none;fontSize=12;" vertex="1" parent="1">
                    <mxGeometry x="-120" y="-240" width="40" height="40" as="geometry"/>
                </mxCell>
                <mxCell id="5" style="edgeStyle=none;html=1;exitX=1;exitY=0.5;exitDx=0;exitDy=0;entryX=0;entryY=0.5;entryDx=0;entryDy=0;strokeColor=#FFA929;fontSize=12;fontColor=#FF0000;startArrow=none;startFill=0;endArrow=openThin;endFill=0;" edge="1" parent="1" source="6" target="9">
                    <mxGeometry relative="1" as="geometry"/>
                </mxCell>
                <mxCell id="6" value="C3" style="ellipse;whiteSpace=wrap;html=1;labelBackgroundColor=none;fontSize=12;strokeColor=#FFA929;" vertex="1" parent="1">
                    <mxGeometry x="-40" y="-280" width="40" height="40" as="geometry"/>
                </mxCell>
                <mxCell id="7" value="C4" style="ellipse;whiteSpace=wrap;html=1;labelBackgroundColor=none;fontSize=12;strokeColor=#006DA3;" vertex="1" parent="1">
                    <mxGeometry x="-40" y="-200" width="40" height="40" as="geometry"/>
                </mxCell>
                <mxCell id="8" style="edgeStyle=none;html=1;exitX=1;exitY=0.5;exitDx=0;exitDy=0;entryX=0;entryY=0;entryDx=0;entryDy=0;strokeColor=#FFA929;fontSize=12;fontColor=#FF0000;startArrow=none;startFill=0;endArrow=openThin;endFill=0;" edge="1" parent="1" source="9" target="12">
                    <mxGeometry relative="1" as="geometry">
                        <Array as="points">
                            <mxPoint x="190" y="-250"/>
                        </Array>
                    </mxGeometry>
                </mxCell>
                <mxCell id="9" value="Cn" style="ellipse;whiteSpace=wrap;html=1;labelBackgroundColor=none;fontSize=12;strokeColor=#FFA929;" vertex="1" parent="1">
                    <mxGeometry x="120" y="-280" width="40" height="40" as="geometry"/>
                </mxCell>
                <mxCell id="10" style="edgeStyle=none;html=1;exitX=1;exitY=0.5;exitDx=0;exitDy=0;entryX=0;entryY=1;entryDx=0;entryDy=0;strokeColor=#006DA3;fontSize=12;fontColor=#FF0000;startArrow=none;startFill=0;endArrow=openThin;endFill=0;" edge="1" parent="1" source="11" target="12">
                    <mxGeometry relative="1" as="geometry">
                        <Array as="points">
                            <mxPoint x="190" y="-190"/>
                        </Array>
                    </mxGeometry>
                </mxCell>
                <mxCell id="11" value="Cm" style="ellipse;whiteSpace=wrap;html=1;labelBackgroundColor=none;fontSize=12;strokeColor=#006DA3;" vertex="1" parent="1">
                    <mxGeometry x="120" y="-200" width="40" height="40" as="geometry"/>
                </mxCell>
                <mxCell id="12" value="Cf" style="ellipse;whiteSpace=wrap;html=1;labelBackgroundColor=none;fontSize=12;" vertex="1" parent="1">
                    <mxGeometry x="200" y="-240" width="40" height="40" as="geometry"/>
                </mxCell>
                <mxCell id="13" style="edgeStyle=none;html=1;exitX=1;exitY=0.5;exitDx=0;exitDy=0;entryX=0;entryY=0.5;entryDx=0;entryDy=0;strokeColor=#006DA3;fontSize=12;fontColor=#FF0000;startArrow=none;startFill=0;endArrow=openThin;endFill=0;" edge="1" parent="1">
                    <mxGeometry relative="1" as="geometry">
                        <mxPoint y="-180.15999999999988" as="sourcePoint"/>
                        <mxPoint x="120" y="-180.15999999999988" as="targetPoint"/>
                    </mxGeometry>
                </mxCell>
                <mxCell id="14" value="&lt;font style=&quot;font-size: 10px;&quot; color=&quot;#000000&quot;&gt;&lt;i&gt;master&lt;/i&gt;&lt;/font&gt;" style="edgeStyle=none;html=1;exitX=1;exitY=0.5;exitDx=0;exitDy=0;entryX=0;entryY=0.5;entryDx=0;entryDy=0;strokeColor=#000000;fontSize=12;fontColor=#FF0000;startArrow=none;startFill=0;endArrow=openThin;endFill=0;" edge="1" parent="1" source="15" target="4">
                    <mxGeometry y="-10" relative="1" as="geometry">
                        <mxPoint as="offset"/>
                    </mxGeometry>
                </mxCell>
                <mxCell id="15" value="C1" style="ellipse;whiteSpace=wrap;html=1;labelBackgroundColor=none;fontSize=12;" vertex="1" parent="1">
                    <mxGeometry x="-200" y="-240" width="40" height="40" as="geometry"/>
                </mxCell>
                <mxCell id="16" value="&lt;font size=&quot;1&quot; style=&quot;&quot; color=&quot;#000000&quot;&gt;&lt;i style=&quot;&quot;&gt;Initial Commit&lt;/i&gt;&lt;/font&gt;" style="text;html=1;strokeColor=none;fillColor=none;align=center;verticalAlign=middle;whiteSpace=wrap;rounded=0;labelBackgroundColor=none;fontSize=12;fontColor=#FF0000;" vertex="1" parent="1">
                    <mxGeometry x="-240" y="-260" width="120" height="20" as="geometry"/>
                </mxCell>
                <mxCell id="17" value="&lt;b&gt;&lt;font color=&quot;#ff0000&quot;&gt;Version 1.0&lt;/font&gt;&lt;/b&gt;" style="text;html=1;strokeColor=none;fillColor=none;align=center;verticalAlign=middle;whiteSpace=wrap;rounded=0;labelBackgroundColor=none;fontSize=10;fontColor=#006DA3;" vertex="1" parent="1">
                    <mxGeometry x="200" y="-280" width="40" height="40" as="geometry"/>
                </mxCell>
                <mxCell id="18" value="" style="rounded=0;whiteSpace=wrap;html=1;labelBackgroundColor=none;fontSize=10;strokeColor=none;" vertex="1" parent="1">
                    <mxGeometry x="20" y="-280" width="10" height="120" as="geometry"/>
                </mxCell>
                <mxCell id="19" value="" style="rounded=0;whiteSpace=wrap;html=1;labelBackgroundColor=none;fontSize=10;strokeColor=none;" vertex="1" parent="1">
                    <mxGeometry x="40" y="-280" width="10" height="120" as="geometry"/>
                </mxCell>
                <mxCell id="20" value="" style="rounded=0;whiteSpace=wrap;html=1;labelBackgroundColor=none;fontSize=10;strokeColor=none;" vertex="1" parent="1">
                    <mxGeometry x="60" y="-280" width="10" height="120" as="geometry"/>
                </mxCell>
                <mxCell id="21" value="" style="rounded=0;whiteSpace=wrap;html=1;labelBackgroundColor=none;fontSize=10;strokeColor=none;" vertex="1" parent="1">
                    <mxGeometry x="80" y="-280" width="10" height="120" as="geometry"/>
                </mxCell>
            </root>
        </mxGraphModel>
    </diagram>
</mxfile>